<svg width="18" height="15" viewBox="0 0 18 15" fill="none" xmlns="http://www.w3.org/2000/svg">
<path d="M17.1139 3.13294C16.8556 2.53943 16.4831 2.00159 16.0173 1.54953C15.5511 1.09613 15.0015 0.73582 14.3983 0.488192C13.7729 0.230397 13.102 0.0984423 12.4248 0.099989C11.4746 0.099989 10.5476 0.358153 9.74196 0.845797C9.54923 0.962449 9.36614 1.09058 9.19268 1.23018C9.01923 1.09058 8.83613 0.962449 8.6434 0.845797C7.83779 0.358153 6.91075 0.099989 5.96059 0.099989C5.2764 0.099989 4.61341 0.230027 3.98703 0.488192C3.38186 0.736794 2.83643 1.0944 2.3681 1.54953C1.90169 2.00108 1.5291 2.53904 1.27146 3.13294C1.00357 3.75062 0.86673 4.40655 0.86673 5.0816C0.86673 5.71841 0.997786 6.38199 1.25797 7.05704C1.47576 7.62117 1.78798 8.20635 2.18693 8.79726C2.81909 9.73238 3.6883 10.7077 4.76759 11.6963C6.55613 13.3352 8.32732 14.4673 8.40249 14.5132L8.85926 14.8039C9.06163 14.932 9.32181 14.932 9.52418 14.8039L9.98095 14.5132C10.0561 14.4654 11.8254 13.3352 13.6158 11.6963C14.6951 10.7077 15.5644 9.73238 16.1965 8.79726C16.5955 8.20635 16.9096 7.62117 17.1255 7.05704C17.3857 6.38199 17.5167 5.71841 17.5167 5.0816C17.5186 4.40655 17.3818 3.75062 17.1139 3.13294Z" fill="#D6434F"/>
</svg>
