<svg width="15" height="15" viewBox="0 0 15 15" fill="none" xmlns="http://www.w3.org/2000/svg">
<path d="M0.771341 15C0.57375 15 0.376158 14.9248 0.226034 14.7736C-0.0753447 14.4722 -0.0753447 13.9836 0.226034 13.6823L13.6826 0.226028C13.984 -0.0753428 14.4726 -0.0753428 14.774 0.226028C15.0753 0.5274 15.0753 1.016 14.774 1.31756L1.31759 14.7736C1.16634 14.9239 0.968745 15 0.771341 15Z" fill="#404040"/>
<path d="M14.2288 15C14.0313 15 13.8339 14.9248 13.6835 14.7736L0.226034 1.31756C-0.0753447 1.016 -0.0753447 0.5274 0.226034 0.226028C0.527413 -0.0753428 1.01602 -0.0753428 1.31759 0.226028L14.774 13.6823C15.0753 13.9836 15.0753 14.4722 14.774 14.7736C14.6227 14.9239 14.4253 15 14.2288 15Z" fill="#404040"/>
</svg>
