<svg width="18" height="15" viewBox="0 0 18 15" fill="none" xmlns="http://www.w3.org/2000/svg">
<path d="M15.5297 2.05188L15.5292 2.05134C15.1273 1.66044 14.6532 1.34953 14.1325 1.13576L14.1315 1.13539C13.5913 0.912713 13.0117 0.798666 12.4263 0.800002L12.4247 0.800006C11.6015 0.800004 10.8 1.02363 10.1044 1.44465L10.1044 1.44466C9.93799 1.54538 9.78045 1.65567 9.63153 1.77552L9.19265 2.12873L8.75377 1.77552C8.60485 1.65567 8.44732 1.54538 8.28091 1.44466L8.28089 1.44465C7.58534 1.02363 6.78379 0.800004 5.96056 0.800004C5.36656 0.800004 4.7943 0.9126 4.25375 1.13539L4.25299 1.1357C3.73025 1.35044 3.26015 1.65871 2.85592 2.05155L2.85496 2.05248L2.85496 2.05248C2.45435 2.44032 2.13462 2.90209 1.91363 3.41149L15.5297 2.05188ZM15.5297 2.05188C15.9302 2.44049 16.2501 2.90254 16.4719 3.41203C16.7017 3.942 16.8183 4.50232 16.8167 5.07962V5.08162C16.8167 5.62181 16.7055 6.20012 16.4723 6.8053L16.4717 6.8069C16.2785 7.31179 15.9916 7.84968 15.6163 8.40558C15.0226 9.28378 14.1933 10.2181 13.143 11.1802C11.3965 12.7788 9.66659 13.8836 9.60524 13.9226L9.60511 13.9227L9.19169 14.1857L8.77827 13.9227L8.77834 13.9226L8.76726 13.9158C8.7675 13.9159 8.73919 13.8982 8.68039 13.8599C8.62444 13.8234 8.54527 13.7711 8.44616 13.7041C8.2479 13.5702 7.97064 13.3781 7.64042 13.1369C6.97891 12.6537 6.11043 11.9774 5.24047 11.1803L5.24039 11.1802M15.5297 2.05188L5.24039 11.1802M5.24039 11.1802C4.19008 10.2181 3.36078 9.28378 2.76706 8.40558L5.24039 11.1802ZM1.5667 5.08162C1.5667 4.50278 1.68371 3.94164 1.91361 3.41154L1.91097 6.80495C1.67781 6.1999 1.5667 5.6217 1.5667 5.08162ZM2.76682 8.40524C2.39254 7.85081 2.10691 7.31242 1.91111 6.8053L2.76682 8.40524Z" stroke="#ECECEC" stroke-width="1.4"/>
</svg>
