<svg width="27" height="27" viewBox="0 0 27 27" fill="none" xmlns="http://www.w3.org/2000/svg">
<path d="M18.9425 5.0625C19.5568 5.06198 20.1651 5.18411 20.7316 5.42172C21.2981 5.65934 21.8114 6.00765 22.2416 6.44625C23.1279 7.34601 23.6247 8.55829 23.6247 9.82125C23.6247 11.0842 23.1279 12.2965 22.2416 13.1963L13.5003 22.0472L4.75908 13.1963C3.87279 12.2965 3.37599 11.0842 3.37599 9.82125C3.37599 8.55829 3.87279 7.34601 4.75908 6.44625C5.18947 6.00797 5.70288 5.65983 6.26932 5.42219C6.83576 5.18454 7.44387 5.06214 8.05814 5.06214C8.67241 5.06214 9.28053 5.18454 9.84697 5.42219C10.4134 5.65983 10.9268 6.00797 11.3572 6.44625L13.5003 8.64L15.635 6.46313C16.0638 6.0193 16.5778 5.66651 17.1461 5.42585C17.7144 5.1852 18.3254 5.06162 18.9425 5.0625ZM18.9425 3.375C18.1035 3.37429 17.2728 3.5411 16.4991 3.86564C15.7254 4.19019 15.0243 4.66594 14.4369 5.265L13.5003 6.21L12.5638 5.265C11.9756 4.66702 11.2743 4.1921 10.5008 3.86791C9.72723 3.54373 8.89688 3.37677 8.05814 3.37677C7.2194 3.37677 6.38905 3.54373 5.6155 3.86791C4.84194 4.1921 4.14065 4.66702 3.55252 5.265C2.35598 6.48306 1.68555 8.12224 1.68555 9.82969C1.68555 11.5371 2.35598 13.1763 3.55252 14.3944L13.5003 24.4688L23.4481 14.3944C24.6447 13.1763 25.3151 11.5371 25.3151 9.82969C25.3151 8.12224 24.6447 6.48306 23.4481 5.265C22.8602 4.6667 22.1589 4.19145 21.3854 3.86696C20.6118 3.54247 19.7814 3.37523 18.9425 3.375Z" fill="#404040"/>
</svg>
