<svg width="14" height="13" viewBox="0 0 14 13" fill="none" xmlns="http://www.w3.org/2000/svg">
<g clip-path="url(#clip0_10_3)">
<path d="M11.875 11.375L9.44509 8.94076L11.875 11.375ZM10.7917 5.68751C10.7917 6.90861 10.3066 8.0797 9.44315 8.94315C8.5797 9.8066 7.40861 10.2917 6.18751 10.2917C4.96641 10.2917 3.79532 9.8066 2.93187 8.94315C2.06842 8.0797 1.58334 6.90861 1.58334 5.68751C1.58334 4.46641 2.06842 3.29532 2.93187 2.43187C3.79532 1.56842 4.96641 1.08334 6.18751 1.08334C7.40861 1.08334 8.5797 1.56842 9.44315 2.43187C10.3066 3.29532 10.7917 4.46641 10.7917 5.68751V5.68751Z" stroke="#9F9F9F" stroke-width="2" stroke-linecap="round"/>
</g>
<defs>
<clipPath id="clip0_10_3">
<rect width="13" height="13" fill="white" transform="translate(0.5)"/>
</clipPath>
</defs>
</svg>
