<svg width="18" height="19" viewBox="0 0 18 19" fill="none" xmlns="http://www.w3.org/2000/svg">
<path d="M17.9333 9.28699C17.7916 9.08073 14.385 4.24991 8.99997 4.24991C4.37914 4.24991 0.261573 9.05299 0.0883203 9.25774C-0.0294198 9.39724 -0.0294198 9.602 0.0883203 9.74224C0.261573 9.94699 4.37914 14.7501 8.99997 14.7501C13.6208 14.7501 17.7383 9.94699 17.9116 9.74224C18.0204 9.61325 18.0301 9.42649 17.9333 9.28699ZM8.99997 14.0001C5.29568 14.0001 1.7736 10.4675 0.878856 9.50001C1.77212 8.53175 5.29044 4.99994 8.99997 4.99994C13.3343 4.99994 16.3936 8.52725 17.1406 9.47976C16.2781 10.4165 12.7358 14.0001 8.99997 14.0001Z" fill="black"/>
<path d="M8.99998 6.49994C7.34546 6.49994 5.99994 7.84546 5.99994 9.49997C5.99994 11.1545 7.34546 12.5 8.99998 12.5C10.6545 12.5 12 11.1545 12 9.49997C12 7.84546 10.6545 6.49994 8.99998 6.49994ZM8.99998 11.75C7.75947 11.75 6.74994 10.7405 6.74994 9.50001C6.74994 8.2595 7.75947 7.24997 8.99998 7.24997C10.2405 7.24997 11.25 8.2595 11.25 9.50001C11.25 10.7405 10.2405 11.75 8.99998 11.75Z" fill="black"/>
</svg>
