<svg width="18" height="18" viewBox="0 0 18 18" fill="none" xmlns="http://www.w3.org/2000/svg">
<g clip-path="url(#clip0_63_2204)">
<path d="M11.121 6.87874C10.9748 6.73249 10.737 6.73249 10.5907 6.87874C10.4445 7.02499 10.4445 7.26349 10.5907 7.40901C11.0153 7.83352 11.25 8.39827 11.25 8.99976C11.25 10.2402 10.2405 11.2498 8.99999 11.2498C8.3985 11.2498 7.83375 11.0158 7.40924 10.5905C7.26299 10.4443 7.02522 10.4443 6.87897 10.5905C6.73272 10.736 6.73272 10.9745 6.87897 11.1208C7.44446 11.6878 8.19821 11.9998 8.99999 11.9998C10.6545 11.9998 12 10.6543 12 8.99979C12 8.19798 11.688 7.44423 11.121 6.87874Z" fill="#404040"/>
<path d="M9.52273 6.05147C9.35247 6.02148 9.17848 5.99972 8.99999 5.99972C7.3455 5.99972 6 7.34522 6 8.9997C6 9.17819 6.02176 9.35221 6.05249 9.52244C6.08473 9.70395 6.243 9.8322 6.42075 9.8322C6.44251 9.8322 6.46424 9.83069 6.48674 9.82619C6.68998 9.79019 6.82649 9.59518 6.79049 9.39194C6.76725 9.26443 6.74999 9.1347 6.74999 8.9997C6.74999 7.75922 7.7595 6.74971 8.99999 6.74971C9.135 6.74971 9.26476 6.76697 9.39223 6.78947C9.59175 6.82997 9.79048 6.68896 9.82649 6.48572C9.86249 6.28248 9.72601 6.08747 9.52273 6.05147Z" fill="#404040"/>
<path d="M17.9108 8.75748C17.8261 8.65696 15.7973 6.28923 12.9991 4.83949C12.8176 4.74426 12.5888 4.81626 12.4936 5.00076C12.3983 5.18452 12.4703 5.41099 12.6548 5.50627C14.8103 6.62226 16.5323 8.36376 17.1211 8.99977C16.2271 9.96801 12.7088 13.4998 9.0001 13.4998C7.74162 13.4998 6.47336 13.196 5.22911 12.596C5.04461 12.5053 4.81887 12.584 4.72887 12.7708C4.63813 12.9568 4.71688 13.181 4.90363 13.271C6.24987 13.9213 7.62838 14.2498 9.00014 14.2498C13.6209 14.2498 17.7384 9.44675 17.9116 9.242C18.0301 9.10246 18.0293 8.89771 17.9108 8.75748Z" fill="#404040"/>
<path d="M11.4608 4.18172C10.6073 3.89446 9.77931 3.74972 9.00003 3.74972C4.37928 3.74972 0.261789 8.55273 0.0885391 8.75748C-0.0209724 8.88646 -0.0299724 9.07399 0.0675508 9.21422C0.119301 9.28847 1.35905 11.0487 3.50779 12.476C3.57153 12.5187 3.64279 12.539 3.71479 12.539C3.83556 12.539 3.9548 12.4805 4.0268 12.3702C4.14155 12.1985 4.0943 11.9652 3.92179 11.8512C2.34381 10.802 1.26381 9.53524 0.859549 9.01999C1.72281 8.08248 5.2643 4.49975 9.00003 4.49975C9.69827 4.49975 10.446 4.63176 11.2215 4.89198C11.418 4.96247 11.631 4.85373 11.6963 4.65647C11.7623 4.45998 11.6573 4.24775 11.4608 4.18172Z" fill="#404040"/>
<path d="M15.6397 2.35996C15.4934 2.21371 15.2556 2.21371 15.1094 2.35996L2.35944 15.11C2.21319 15.2562 2.21319 15.494 2.35944 15.6402C2.43295 15.7129 2.52893 15.7497 2.62494 15.7497C2.72095 15.7497 2.81693 15.713 2.8897 15.6402L15.6397 2.89022C15.7859 2.74397 15.7859 2.50621 15.6397 2.35996Z" fill="#404040"/>
</g>
<defs>
<clipPath id="clip0_63_2204">
<rect width="18" height="18" fill="white"/>
</clipPath>
</defs>
</svg>
