<svg width="25" height="25" viewBox="0 0 25 25" fill="none" xmlns="http://www.w3.org/2000/svg">
<path d="M4.14294 10.375C4.18484 9.8529 4.42185 9.36576 4.80677 9.01057C5.19169 8.65538 5.69627 8.45821 6.22002 8.45831H18.7804C19.3042 8.45821 19.8088 8.65538 20.1937 9.01057C20.5786 9.36576 20.8156 9.8529 20.8575 10.375L21.694 20.7916C21.717 21.0783 21.6804 21.3666 21.5865 21.6384C21.4926 21.9103 21.3435 22.1597 21.1485 22.3711C20.9534 22.5824 20.7168 22.7511 20.4534 22.8665C20.19 22.9819 19.9055 23.0416 19.6179 23.0416H5.38252C5.09494 23.0416 4.81049 22.9819 4.54709 22.8665C4.28368 22.7511 4.04701 22.5824 3.852 22.3711C3.65698 22.1597 3.50784 21.9103 3.41395 21.6384C3.32007 21.3666 3.28348 21.0783 3.30648 20.7916L4.14294 10.375V10.375Z" stroke="#404040" stroke-width="2" stroke-linecap="round" stroke-linejoin="round"/>
<path d="M16.6673 11.4583V6.24998C16.6673 5.14491 16.2283 4.0851 15.4469 3.3037C14.6655 2.5223 13.6057 2.08331 12.5007 2.08331C11.3956 2.08331 10.3358 2.5223 9.55437 3.3037C8.77297 4.0851 8.33398 5.14491 8.33398 6.24998V11.4583" stroke="#404040" stroke-width="2" stroke-linecap="round" stroke-linejoin="round"/>
</svg>
