<svg width="28" height="28" viewBox="0 0 28 28" fill="none" xmlns="http://www.w3.org/2000/svg">
<path d="M14 2.33334C12.8463 2.33334 11.7185 2.67546 10.7592 3.31644C9.79989 3.95741 9.05221 4.86845 8.6107 5.93436C8.16919 7.00026 8.05367 8.17315 8.27875 9.3047C8.50383 10.4363 9.0594 11.4757 9.87521 12.2915C10.691 13.1073 11.7304 13.6628 12.862 13.8879C13.9935 14.113 15.1664 13.9975 16.2323 13.556C17.2982 13.1145 18.2093 12.3668 18.8502 11.4075C19.4912 10.4482 19.8333 9.3204 19.8333 8.16668C19.8333 6.61958 19.2188 5.13585 18.1248 4.04189C17.0308 2.94793 15.5471 2.33334 14 2.33334ZM14 11.6667C13.3078 11.6667 12.6311 11.4614 12.0555 11.0768C11.4799 10.6922 11.0313 10.1456 10.7664 9.50607C10.5015 8.86653 10.4322 8.16279 10.5673 7.48386C10.7023 6.80493 11.0356 6.18129 11.5251 5.6918C12.0146 5.20232 12.6383 4.86898 13.3172 4.73393C13.9961 4.59888 14.6999 4.66819 15.3394 4.9331C15.9789 5.19801 16.5256 5.64661 16.9101 6.22218C17.2947 6.79775 17.5 7.47444 17.5 8.16668C17.5 9.09493 17.1313 9.98517 16.4749 10.6416C15.8185 11.2979 14.9283 11.6667 14 11.6667ZM24.5 24.5V23.3333C24.5 21.1674 23.6396 19.0902 22.108 17.5586C20.5765 16.0271 18.4993 15.1667 16.3333 15.1667H11.6667C9.50073 15.1667 7.42351 16.0271 5.89196 17.5586C4.36041 19.0902 3.5 21.1674 3.5 23.3333V24.5H5.83333V23.3333C5.83333 21.7862 6.44791 20.3025 7.54188 19.2086C8.63584 18.1146 10.1196 17.5 11.6667 17.5H16.3333C17.8804 17.5 19.3642 18.1146 20.4581 19.2086C21.5521 20.3025 22.1667 21.7862 22.1667 23.3333V24.5H24.5Z" fill="#404040"/>
</svg>
